<svg xmlns="http://www.w3.org/2000/svg" xmlns:xlink="http://www.w3.org/1999/xlink" width="500" zoomAndPan="magnify" viewBox="0 0 375 374.999991" height="500" preserveAspectRatio="xMidYMid meet" version="1.0"><defs><clipPath id="ef1c837efc"><path d="M 145.308594 152.058594 L 230 152.058594 L 230 223 L 145.308594 223 Z M 145.308594 152.058594 " clip-rule="nonzero"/></clipPath></defs><g clip-path="url(#ef1c837efc)"><path fill="#c8b790" d="M 229.039062 170.28125 L 212.296875 152.570312 C 211.988281 152.242188 211.558594 152.054688 211.105469 152.054688 L 163.886719 152.054688 C 163.433594 152.054688 163.003906 152.242188 162.695312 152.570312 L 145.953125 170.28125 C 145.390625 170.875 145.355469 171.800781 145.871094 172.4375 L 186.21875 222.3125 C 186.53125 222.699219 187 222.921875 187.496094 222.921875 C 187.992188 222.921875 188.460938 222.699219 188.769531 222.3125 L 229.121094 172.4375 C 229.636719 171.800781 229.601562 170.875 229.039062 170.28125 Z M 163.355469 156.644531 L 168.917969 169.765625 L 150.953125 169.765625 Z M 201.332031 173.046875 L 187.496094 215.238281 L 173.660156 173.046875 Z M 175.140625 169.765625 L 187.496094 156.371094 L 199.851562 169.765625 Z M 191.003906 155.335938 L 208.628906 155.335938 L 203.078125 168.425781 Z M 171.914062 168.425781 L 166.363281 155.335938 L 183.988281 155.335938 Z M 170.207031 173.046875 L 183.585938 213.839844 L 150.582031 173.046875 Z M 204.785156 173.046875 L 224.410156 173.046875 L 191.40625 213.839844 Z M 206.074219 169.765625 L 211.636719 156.644531 L 224.039062 169.765625 Z M 206.074219 169.765625 " fill-opacity="1" fill-rule="nonzero"/></g></svg>