<svg xmlns="http://www.w3.org/2000/svg" xmlns:xlink="http://www.w3.org/1999/xlink" width="500" zoomAndPan="magnify" viewBox="0 0 375 374.999991" height="500" preserveAspectRatio="xMidYMid meet" version="1.0"><defs><clipPath id="3297cb0845"><path d="M 146.457031 146 L 228 146 L 228 228 L 146.457031 228 Z M 146.457031 146 " clip-rule="nonzero"/></clipPath><clipPath id="1ae857eb0f"><path d="M 158 218 L 172 218 L 172 231.957031 L 158 231.957031 Z M 158 218 " clip-rule="nonzero"/></clipPath><clipPath id="3b8bf2880c"><path d="M 203 218 L 217 218 L 217 231.957031 L 203 231.957031 Z M 203 218 " clip-rule="nonzero"/></clipPath><clipPath id="275e1741f0"><path d="M 146.457031 142.707031 L 168 142.707031 L 168 160 L 146.457031 160 Z M 146.457031 142.707031 " clip-rule="nonzero"/></clipPath><clipPath id="be11f84f8a"><path d="M 207 142.707031 L 228 142.707031 L 228 160 L 207 160 Z M 207 142.707031 " clip-rule="nonzero"/></clipPath></defs><g clip-path="url(#3297cb0845)"><path fill="#c8b790" d="M 187.308594 152.34375 C 168 152.34375 152.34375 167.996094 152.34375 187.304688 C 152.34375 206.613281 168 222.265625 187.308594 222.265625 C 206.617188 222.265625 222.269531 206.613281 222.269531 187.304688 C 222.269531 167.996094 206.617188 152.34375 187.308594 152.34375 Z M 146.675781 187.304688 C 146.675781 164.867188 164.867188 146.675781 187.308594 146.675781 C 209.746094 146.675781 227.9375 164.867188 227.9375 187.304688 C 227.9375 209.746094 209.746094 227.9375 187.308594 227.9375 C 164.867188 227.9375 146.675781 209.746094 146.675781 187.304688 Z M 146.675781 187.304688 " fill-opacity="1" fill-rule="evenodd"/></g><g clip-path="url(#1ae857eb0f)"><path fill="#c8b790" d="M 170.414062 219.316406 C 171.519531 220.425781 171.519531 222.21875 170.414062 223.328125 L 162.855469 230.886719 C 161.746094 231.992188 159.953125 231.992188 158.84375 230.886719 C 157.738281 229.777344 157.738281 227.984375 158.84375 226.878906 L 166.40625 219.316406 C 167.511719 218.210938 169.304688 218.210938 170.414062 219.316406 Z M 170.414062 219.316406 " fill-opacity="1" fill-rule="evenodd"/></g><g clip-path="url(#3b8bf2880c)"><path fill="#c8b790" d="M 204.199219 219.316406 C 203.09375 220.425781 203.09375 222.21875 204.199219 223.328125 L 211.761719 230.886719 C 212.867188 231.992188 214.660156 231.992188 215.769531 230.886719 C 216.875 229.777344 216.875 227.984375 215.769531 226.878906 L 208.210938 219.316406 C 207.101562 218.210938 205.308594 218.210938 204.199219 219.316406 Z M 204.199219 219.316406 " fill-opacity="1" fill-rule="evenodd"/></g><g clip-path="url(#275e1741f0)"><path fill="#c8b790" d="M 166.898438 144.027344 C 167.835938 145.28125 167.582031 147.058594 166.332031 147.996094 L 151.210938 159.335938 C 149.957031 160.277344 148.183594 160.023438 147.242188 158.769531 C 146.304688 157.515625 146.558594 155.738281 147.808594 154.800781 L 162.929688 143.460938 C 164.179688 142.523438 165.957031 142.777344 166.898438 144.027344 Z M 166.898438 144.027344 " fill-opacity="1" fill-rule="evenodd"/></g><g clip-path="url(#be11f84f8a)"><path fill="#c8b790" d="M 207.71875 144.027344 C 206.777344 145.28125 207.03125 147.058594 208.285156 147.996094 L 223.402344 159.335938 C 224.65625 160.277344 226.433594 160.023438 227.371094 158.769531 C 228.3125 157.515625 228.058594 155.738281 226.804688 154.800781 L 211.6875 143.460938 C 210.433594 142.523438 208.65625 142.777344 207.71875 144.027344 Z M 207.71875 144.027344 " fill-opacity="1" fill-rule="evenodd"/></g><path fill="#c8b790" d="M 187.308594 165.574219 C 188.871094 165.574219 190.140625 166.839844 190.140625 168.40625 L 190.140625 185.886719 L 204.125 196.375 C 205.378906 197.316406 205.632812 199.09375 204.695312 200.34375 C 203.753906 201.597656 201.976562 201.851562 200.726562 200.914062 L 185.605469 189.574219 C 184.890625 189.039062 184.472656 188.199219 184.472656 187.304688 L 184.472656 168.40625 C 184.472656 166.839844 185.742188 165.574219 187.308594 165.574219 Z M 187.308594 165.574219 " fill-opacity="1" fill-rule="evenodd"/></svg>