<svg xmlns="http://www.w3.org/2000/svg" xmlns:xlink="http://www.w3.org/1999/xlink" width="500" zoomAndPan="magnify" viewBox="0 0 375 374.999991" height="500" preserveAspectRatio="xMidYMid meet" version="1.0"><defs><clipPath id="2bf343de95"><path d="M 145.289062 159.703125 L 229.710938 159.703125 L 229.710938 215.203125 L 145.289062 215.203125 Z M 145.289062 159.703125 " clip-rule="nonzero"/></clipPath><clipPath id="cd7508f5bb"><path d="M 145.226562 170 L 229.976562 170 L 229.976562 183 L 145.226562 183 Z M 145.226562 170 " clip-rule="nonzero"/></clipPath></defs><g clip-path="url(#2bf343de95)"><path fill="#c8b790" d="M 152.296875 159.703125 L 222.699219 159.703125 C 224.5625 159.703125 226.335938 160.445312 227.652344 161.761719 C 228.972656 163.078125 229.710938 164.851562 229.710938 166.714844 L 229.710938 208.269531 C 229.710938 210.132812 228.972656 211.90625 227.652344 213.222656 C 226.335938 214.539062 224.5625 215.28125 222.699219 215.28125 L 152.296875 215.28125 C 150.433594 215.28125 148.664062 214.539062 147.34375 213.222656 C 146.027344 211.90625 145.289062 210.132812 145.289062 208.269531 L 145.289062 166.714844 C 145.289062 164.851562 146.027344 163.078125 147.34375 161.761719 C 148.664062 160.445312 150.433594 159.703125 152.296875 159.703125 Z M 222.699219 163.597656 L 152.296875 163.597656 C 151.46875 163.597656 150.683594 163.929688 150.101562 164.515625 C 149.515625 165.101562 149.183594 165.886719 149.183594 166.714844 L 149.183594 208.269531 C 149.183594 209.097656 149.515625 209.882812 150.101562 210.46875 C 150.683594 211.054688 151.46875 211.386719 152.296875 211.386719 L 222.699219 211.386719 C 223.527344 211.386719 224.3125 211.054688 224.898438 210.46875 C 225.484375 209.882812 225.816406 209.097656 225.816406 208.269531 L 225.816406 166.714844 C 225.816406 165.886719 225.484375 165.101562 224.898438 164.515625 C 224.3125 163.929688 223.527344 163.597656 222.699219 163.597656 " fill-opacity="1" fill-rule="evenodd"/></g><g clip-path="url(#cd7508f5bb)"><path fill="#c8b790" d="M 229.0625 171.90625 L 229.0625 182.160156 L 145.9375 182.160156 L 145.9375 170.605469 L 229.0625 170.605469 L 229.0625 171.90625 " fill-opacity="1" fill-rule="nonzero"/></g><path fill="#c8b790" d="M 159.832031 190.089844 C 160.773438 190.089844 161.679688 190.257812 162.523438 190.570312 C 162.597656 190.597656 162.671875 190.625 162.742188 190.652344 C 162.421875 190.898438 162.117188 191.164062 161.828125 191.453125 C 160.121094 193.164062 159.167969 195.464844 159.167969 197.882812 C 159.167969 200.300781 160.121094 202.601562 161.828125 204.308594 C 162.117188 204.597656 162.421875 204.867188 162.742188 205.109375 C 162.671875 205.140625 162.597656 205.167969 162.523438 205.195312 C 161.679688 205.503906 160.773438 205.675781 159.832031 205.675781 C 157.679688 205.675781 155.730469 204.800781 154.320312 203.390625 C 152.910156 201.980469 152.039062 200.035156 152.039062 197.882812 C 152.039062 195.730469 152.910156 193.78125 154.320312 192.371094 C 155.730469 190.960938 157.679688 190.089844 159.832031 190.089844 " fill-opacity="1" fill-rule="nonzero"/><path fill="#c8b790" d="M 162.746094 192.371094 C 164.160156 190.960938 166.105469 190.089844 168.257812 190.089844 C 170.410156 190.089844 172.359375 190.960938 173.769531 192.371094 C 175.179688 193.78125 176.050781 195.730469 176.050781 197.882812 C 176.050781 200.035156 175.179688 201.980469 173.769531 203.390625 C 172.359375 204.800781 170.410156 205.675781 168.257812 205.675781 C 166.105469 205.675781 164.160156 204.800781 162.746094 203.390625 C 161.339844 201.980469 160.464844 200.035156 160.464844 197.882812 C 160.464844 195.730469 161.339844 193.78125 162.746094 192.371094 " fill-opacity="1" fill-rule="nonzero"/><path fill="#c8b790" d="M 183.199219 195.933594 L 191.519531 195.933594 C 192.535156 195.933594 193.355469 196.804688 193.355469 197.882812 C 193.355469 198.957031 192.535156 199.832031 191.519531 199.832031 L 183.199219 199.832031 C 182.1875 199.832031 181.363281 198.957031 181.363281 197.882812 C 181.363281 196.804688 182.1875 195.933594 183.199219 195.933594 Z M 197.695312 195.933594 L 206.015625 195.933594 C 207.027344 195.933594 207.847656 196.804688 207.847656 197.882812 C 207.847656 198.957031 207.027344 199.832031 206.015625 199.832031 L 197.695312 199.832031 C 196.679688 199.832031 195.859375 198.957031 195.859375 197.882812 C 195.859375 196.804688 196.679688 195.933594 197.695312 195.933594 Z M 212.1875 195.933594 L 220.507812 195.933594 C 221.523438 195.933594 222.34375 196.804688 222.34375 197.882812 C 222.34375 198.957031 221.523438 199.832031 220.507812 199.832031 L 212.1875 199.832031 C 211.175781 199.832031 210.351562 198.957031 210.351562 197.882812 C 210.351562 196.804688 211.175781 195.933594 212.1875 195.933594 " fill-opacity="1" fill-rule="evenodd"/></svg>