<svg xmlns="http://www.w3.org/2000/svg" xmlns:xlink="http://www.w3.org/1999/xlink" width="500" zoomAndPan="magnify" viewBox="0 0 375 374.999991" height="500" preserveAspectRatio="xMidYMid meet" version="1.0"><defs><clipPath id="8daf1031dd"><path d="M 145.144531 147 L 229.894531 147 L 229.894531 228 L 145.144531 228 Z M 145.144531 147 " clip-rule="nonzero"/></clipPath></defs><g clip-path="url(#8daf1031dd)"><path fill="#c8b790" d="M 226.179688 184.113281 L 223.9375 187.4375 L 175.386719 154.738281 L 177.628906 151.414062 C 178.65625 149.882812 180.742188 149.476562 182.265625 150.503906 L 225.273438 179.472656 C 226.800781 180.5 227.210938 182.585938 226.179688 184.113281 Z M 210.539062 207.335938 L 213.003906 189.742188 L 219.460938 194.089844 Z M 205.96875 222.59375 C 205.714844 224.417969 204.019531 225.695312 202.199219 225.441406 L 150.847656 218.246094 C 149.023438 217.988281 147.738281 216.292969 148 214.46875 L 151.152344 191.964844 L 209.125 200.097656 Z M 152.824219 180.058594 C 153.078125 178.230469 154.769531 176.957031 156.59375 177.214844 L 207.945312 184.414062 C 209.773438 184.664062 211.050781 186.355469 210.789062 188.183594 L 210.234375 192.152344 L 152.261719 184.027344 Z M 170.910156 161.386719 L 199.789062 180.835938 L 161.433594 175.457031 Z M 226.617188 177.480469 L 183.613281 148.511719 C 180.984375 146.742188 177.40625 147.433594 175.628906 150.070312 L 158.777344 175.085938 L 156.929688 174.828125 C 153.792969 174.390625 150.878906 176.585938 150.4375 179.726562 L 145.625 214.132812 C 145.175781 217.273438 147.375 220.183594 150.511719 220.625 L 201.859375 227.824219 C 205 228.265625 207.910156 226.058594 208.351562 222.925781 L 209.777344 212.769531 L 228.171875 185.453125 C 229.945312 182.828125 229.246094 179.25 226.617188 177.480469 " fill-opacity="1" fill-rule="nonzero"/></g><path fill="#c8b790" d="M 178.875 202.121094 L 203.632812 205.597656 L 203.90625 203.632812 L 179.152344 200.164062 L 178.875 202.121094 " fill-opacity="1" fill-rule="nonzero"/><path fill="#c8b790" d="M 178.285156 206.367188 L 203.042969 209.832031 L 203.3125 207.867188 L 178.558594 204.394531 L 178.285156 206.367188 " fill-opacity="1" fill-rule="nonzero"/></svg>