<svg xmlns="http://www.w3.org/2000/svg" xmlns:xlink="http://www.w3.org/1999/xlink" width="500" zoomAndPan="magnify" viewBox="0 0 375 374.999991" height="500" preserveAspectRatio="xMidYMid meet" version="1.0"><path fill="#c8b790" d="M 213.570312 156.148438 C 213.234375 155.113281 212.273438 154.417969 211.171875 154.417969 L 204.808594 154.417969 C 204.804688 153.132812 204.777344 151.851562 204.71875 150.570312 C 204.707031 150.25 204.445312 150 204.125 150 L 170.8125 150 C 170.496094 150 170.234375 150.25 170.21875 150.570312 C 170.164062 151.851562 170.132812 153.132812 170.128906 154.417969 L 163.765625 154.417969 C 162.667969 154.417969 161.703125 155.113281 161.367188 156.148438 C 160.828125 157.820312 159.828125 162.207031 162.152344 166.839844 C 165.085938 172.683594 171 174.21875 172.148438 174.460938 C 173.097656 178.824219 174.394531 181.582031 176.8125 183.835938 C 177.605469 184.570312 178.441406 185.1875 179.25 185.78125 C 181.105469 187.144531 182.703125 188.324219 183.039062 190.429688 C 183.101562 190.828125 183.09375 191.121094 183.074219 192.226562 C 183.0625 192.910156 183.042969 193.894531 183.03125 195.382812 C 183.019531 197.039062 183.023438 198.4375 183.027344 199.445312 L 176.296875 203.0625 C 176.285156 203.070312 176.273438 203.082031 176.261719 203.089844 C 176.253906 203.097656 176.242188 203.097656 176.230469 203.105469 C 175.777344 203.429688 174.976562 204.160156 174.714844 205.351562 C 174.660156 205.613281 174.632812 205.878906 174.636719 206.144531 L 173.257812 206.144531 C 171.582031 206.144531 170.21875 207.511719 170.21875 209.1875 L 170.21875 210.5625 L 168.25 210.5625 C 167.964844 210.5625 167.722656 210.765625 167.667969 211.042969 L 165.105469 224.292969 C 165.070312 224.46875 165.117188 224.648438 165.230469 224.785156 C 165.34375 224.921875 165.511719 225 165.6875 225 L 209.25 225 C 209.429688 225 209.597656 224.921875 209.710938 224.785156 C 209.824219 224.648438 209.867188 224.464844 209.835938 224.292969 L 207.273438 211.042969 C 207.21875 210.765625 206.972656 210.5625 206.6875 210.5625 L 204.71875 210.5625 L 204.71875 209.1875 C 204.71875 207.507812 203.355469 206.144531 201.679688 206.144531 L 200.300781 206.144531 C 200.304688 205.878906 200.28125 205.613281 200.222656 205.351562 C 199.960938 204.15625 199.160156 203.429688 198.707031 203.105469 C 198.699219 203.097656 198.6875 203.097656 198.675781 203.089844 C 198.664062 203.082031 198.65625 203.070312 198.640625 203.0625 L 191.910156 199.449219 C 191.917969 198.4375 191.921875 197.042969 191.910156 195.382812 C 191.898438 193.894531 191.878906 192.910156 191.867188 192.226562 C 191.84375 191.125 191.839844 190.828125 191.902344 190.433594 C 192.234375 188.324219 193.835938 187.144531 195.691406 185.78125 C 196.5 185.1875 197.335938 184.570312 198.125 183.835938 C 200.546875 181.582031 201.839844 178.824219 202.792969 174.464844 C 204.066406 174.1875 209.882812 172.625 212.785156 166.84375 C 215.113281 162.207031 214.109375 157.820312 213.570312 156.148438 Z M 204.074219 166.441406 C 204.371094 164.113281 204.574219 161.761719 204.691406 159.390625 L 207.894531 159.390625 C 208.257812 159.390625 208.597656 159.53125 208.851562 159.789062 C 209.097656 160.035156 209.230469 160.367188 209.222656 160.714844 C 209.207031 162.097656 208.886719 163.414062 208.277344 164.628906 C 207.113281 166.949219 205.191406 168.226562 203.746094 168.898438 C 203.855469 168.113281 203.964844 167.304688 204.074219 166.441406 Z M 170.863281 166.441406 C 170.972656 167.304688 171.082031 168.113281 171.195312 168.898438 C 169.746094 168.226562 167.828125 166.945312 166.660156 164.628906 C 166.050781 163.414062 165.734375 162.097656 165.714844 160.710938 C 165.710938 160.367188 165.84375 160.035156 166.089844 159.789062 C 166.339844 159.53125 166.679688 159.390625 167.042969 159.390625 L 170.246094 159.390625 C 170.367188 161.761719 170.566406 164.113281 170.863281 166.441406 Z M 163.214844 166.308594 C 161.085938 162.066406 162.007812 158.046875 162.5 156.511719 C 162.675781 155.972656 163.183594 155.605469 163.765625 155.605469 L 170.136719 155.605469 C 170.144531 156.472656 170.160156 157.335938 170.195312 158.203125 L 167.042969 158.203125 C 166.359375 158.203125 165.71875 158.46875 165.242188 158.953125 C 164.769531 159.429688 164.515625 160.058594 164.523438 160.730469 C 164.546875 162.292969 164.90625 163.785156 165.597656 165.164062 C 167.117188 168.191406 169.757812 169.640625 171.394531 170.277344 C 171.550781 171.3125 171.714844 172.273438 171.886719 173.171875 C 170.101562 172.6875 165.589844 171.035156 163.214844 166.308594 Z M 208.527344 223.808594 L 166.410156 223.808594 L 168.742188 211.75 L 206.195312 211.75 Z M 203.53125 209.1875 L 203.53125 210.5625 L 171.410156 210.5625 L 171.410156 209.1875 C 171.410156 208.167969 172.238281 207.335938 173.257812 207.335938 L 201.679688 207.335938 C 202.699219 207.335938 203.53125 208.167969 203.53125 209.1875 Z M 199.109375 206.144531 L 175.828125 206.144531 C 175.828125 205.964844 175.839844 205.785156 175.878906 205.605469 C 176.03125 204.910156 176.464844 204.445312 176.78125 204.179688 L 198.15625 204.179688 C 198.476562 204.445312 198.90625 204.910156 199.058594 205.605469 C 199.097656 205.785156 199.113281 205.964844 199.109375 206.144531 Z M 197.3125 182.964844 C 196.574219 183.652344 195.765625 184.246094 194.984375 184.820312 C 193.003906 186.277344 191.136719 187.652344 190.726562 190.246094 C 190.648438 190.742188 190.652344 191.09375 190.675781 192.25 C 190.6875 192.929688 190.707031 193.910156 190.71875 195.390625 C 190.730469 197.246094 190.726562 198.773438 190.71875 199.796875 C 190.714844 200.015625 190.835938 200.222656 191.03125 200.324219 L 195.992188 202.992188 L 178.945312 202.992188 L 183.90625 200.324219 C 184.101562 200.222656 184.222656 200.015625 184.222656 199.796875 C 184.214844 198.773438 184.207031 197.246094 184.222656 195.390625 C 184.230469 193.910156 184.25 192.929688 184.265625 192.25 C 184.285156 191.09375 184.292969 190.742188 184.214844 190.246094 C 183.804688 187.652344 181.933594 186.277344 179.953125 184.820312 C 179.171875 184.246094 178.363281 183.652344 177.625 182.964844 C 174.25 179.820312 173.214844 175.472656 172.046875 166.292969 C 171.414062 161.339844 171.191406 156.265625 171.386719 151.191406 L 203.554688 151.191406 C 203.746094 156.265625 203.527344 161.339844 202.894531 166.292969 C 201.726562 175.472656 200.691406 179.820312 197.3125 182.964844 Z M 211.722656 166.308594 C 209.363281 171.007812 204.886719 172.671875 203.054688 173.171875 C 203.226562 172.273438 203.386719 171.3125 203.542969 170.277344 C 205.183594 169.640625 207.820312 168.191406 209.339844 165.164062 C 210.035156 163.785156 210.394531 162.292969 210.414062 160.730469 C 210.421875 160.058594 210.167969 159.429688 209.699219 158.953125 C 209.21875 158.46875 208.578125 158.203125 207.894531 158.203125 L 204.746094 158.203125 C 204.777344 157.335938 204.792969 156.472656 204.804688 155.605469 L 211.171875 155.605469 C 211.753906 155.605469 212.261719 155.972656 212.4375 156.511719 C 212.929688 158.046875 213.851562 162.066406 211.722656 166.308594 Z M 211.722656 166.308594 " fill-opacity="1" fill-rule="nonzero"/><path fill="#c8b790" d="M 192.59375 215.609375 L 182.34375 215.609375 C 182.015625 215.609375 181.75 215.875 181.75 216.203125 L 181.75 219.988281 C 181.75 220.316406 182.015625 220.582031 182.34375 220.582031 L 192.59375 220.582031 C 192.921875 220.582031 193.191406 220.316406 193.191406 219.988281 L 193.191406 216.203125 C 193.191406 215.875 192.921875 215.609375 192.59375 215.609375 Z M 192 219.394531 L 182.941406 219.394531 L 182.941406 216.800781 L 192 216.800781 Z M 192 219.394531 " fill-opacity="1" fill-rule="nonzero"/><path fill="#c8b790" d="M 198.707031 163.644531 L 191.3125 162.570312 L 188.003906 155.867188 C 187.804688 155.460938 187.136719 155.460938 186.9375 155.867188 L 183.628906 162.570312 L 176.234375 163.644531 C 176.007812 163.675781 175.824219 163.835938 175.753906 164.050781 C 175.683594 164.265625 175.742188 164.5 175.902344 164.660156 L 181.253906 169.875 L 179.992188 177.242188 C 179.953125 177.464844 180.042969 177.691406 180.226562 177.824219 C 180.410156 177.957031 180.652344 177.972656 180.855469 177.867188 L 187.46875 174.390625 L 194.082031 177.867188 C 194.171875 177.914062 194.265625 177.9375 194.359375 177.9375 C 194.484375 177.9375 194.605469 177.898438 194.710938 177.824219 C 194.894531 177.691406 194.984375 177.464844 194.949219 177.242188 L 193.683594 169.875 L 199.035156 164.660156 C 199.199219 164.503906 199.257812 164.265625 199.1875 164.050781 C 199.117188 163.835938 198.929688 163.675781 198.707031 163.644531 Z M 192.628906 169.242188 C 192.488281 169.378906 192.425781 169.578125 192.457031 169.769531 L 193.570312 176.253906 L 187.746094 173.191406 C 187.660156 173.144531 187.5625 173.125 187.46875 173.125 C 187.375 173.125 187.277344 173.144531 187.191406 173.191406 L 181.367188 176.253906 L 182.480469 169.769531 C 182.511719 169.578125 182.449219 169.378906 182.308594 169.242188 L 177.597656 164.648438 L 184.109375 163.703125 C 184.300781 163.675781 184.46875 163.554688 184.554688 163.378906 L 187.46875 157.476562 L 190.378906 163.378906 C 190.46875 163.554688 190.632812 163.675781 190.828125 163.703125 L 197.339844 164.648438 Z M 192.628906 169.242188 " fill-opacity="1" fill-rule="nonzero"/></svg>