<svg xmlns="http://www.w3.org/2000/svg" xmlns:xlink="http://www.w3.org/1999/xlink" width="500" zoomAndPan="magnify" viewBox="0 0 375 374.999991" height="500" preserveAspectRatio="xMidYMid meet" version="1.0"><defs><clipPath id="b0b8adbfde"><path d="M 158.015625 150 L 217 150 L 217 225 L 158.015625 225 Z M 158.015625 150 " clip-rule="nonzero"/></clipPath></defs><path fill="#c8b790" d="M 178.796875 208.707031 L 195.640625 208.707031 L 195.640625 211.417969 L 178.796875 211.417969 Z M 177.234375 214.546875 L 197.203125 214.546875 C 198.066406 214.546875 198.765625 213.84375 198.765625 212.980469 L 198.765625 207.144531 C 198.765625 206.28125 198.066406 205.582031 197.203125 205.582031 L 177.234375 205.582031 C 176.371094 205.582031 175.671875 206.28125 175.671875 207.144531 L 175.671875 212.980469 C 175.671875 213.84375 176.371094 214.546875 177.234375 214.546875 " fill-opacity="1" fill-rule="nonzero"/><g clip-path="url(#b0b8adbfde)"><path fill="#c8b790" d="M 213.714844 157.613281 C 213.046875 161.804688 211.0625 170.789062 206.023438 174.484375 C 207.523438 170.148438 208.519531 164.355469 208.804688 156.453125 C 208.832031 156.453125 208.859375 156.460938 208.886719 156.460938 L 212.71875 156.460938 C 213.125 156.460938 213.375 156.679688 213.488281 156.8125 C 213.601562 156.945312 213.777344 157.222656 213.714844 157.613281 Z M 191.882812 185.125 C 189.941406 185.933594 188.6875 187.824219 188.6875 189.945312 L 188.6875 194.136719 C 188.6875 196.359375 190.496094 198.167969 192.722656 198.167969 L 193.890625 198.167969 C 194.855469 198.167969 195.664062 198.851562 195.855469 199.761719 L 178.582031 199.761719 C 178.773438 198.851562 179.582031 198.167969 180.546875 198.167969 L 181.714844 198.167969 C 183.941406 198.167969 185.75 196.359375 185.75 194.136719 L 185.75 189.808594 C 185.75 187.757812 184.570312 185.882812 182.742188 185.035156 C 175.777344 181.796875 168.976562 176.644531 168.6875 153.203125 L 205.75 153.203125 C 205.453125 179.46875 197.625 182.730469 191.882812 185.125 Z M 201.632812 216.480469 L 172.804688 216.480469 L 172.804688 202.890625 L 201.632812 202.890625 Z M 203.984375 221.792969 L 170.453125 221.792969 L 170.453125 219.609375 L 203.984375 219.609375 Z M 161.300781 157.617188 C 161.238281 157.222656 161.414062 156.945312 161.527344 156.8125 C 161.640625 156.679688 161.890625 156.460938 162.296875 156.460938 L 165.644531 156.460938 C 165.953125 164.167969 167.019531 169.859375 168.585938 174.164062 C 163.84375 170.296875 161.949219 161.6875 161.300781 157.617188 Z M 215.867188 154.785156 C 215.082031 153.859375 213.933594 153.332031 212.71875 153.332031 L 208.886719 153.332031 C 208.882812 153.332031 208.878906 153.332031 208.871094 153.332031 C 208.878906 152.773438 208.886719 152.21875 208.886719 151.640625 C 208.886719 150.777344 208.1875 150.078125 207.324219 150.078125 L 167.113281 150.078125 C 166.25 150.078125 165.550781 150.777344 165.550781 151.640625 C 165.550781 152.21875 165.558594 152.773438 165.566406 153.332031 L 162.296875 153.332031 C 161.082031 153.332031 159.933594 153.859375 159.148438 154.785156 C 158.363281 155.703125 158.023438 156.914062 158.210938 158.109375 C 159.292969 164.875 162.347656 176.375 170.75 178.800781 C 173.683594 183.738281 177.53125 186.0625 181.425781 187.871094 C 182.152344 188.210938 182.621094 188.96875 182.621094 189.808594 L 182.621094 194.136719 C 182.621094 194.625 182.207031 195.042969 181.714844 195.042969 L 180.546875 195.042969 C 177.855469 195.042969 175.640625 197.125 175.429688 199.761719 L 171.242188 199.761719 C 170.378906 199.761719 169.675781 200.464844 169.675781 201.328125 L 169.675781 216.480469 L 168.890625 216.480469 C 168.023438 216.480469 167.324219 217.179688 167.324219 218.042969 L 167.324219 223.355469 C 167.324219 224.21875 168.023438 224.917969 168.890625 224.917969 L 205.546875 224.917969 C 206.410156 224.917969 207.113281 224.21875 207.113281 223.355469 L 207.113281 218.042969 C 207.113281 217.179688 206.410156 216.480469 205.546875 216.480469 L 204.761719 216.480469 L 204.761719 201.328125 C 204.761719 200.464844 204.058594 199.761719 203.195312 199.761719 L 199.007812 199.761719 C 198.792969 197.125 196.582031 195.042969 193.890625 195.042969 L 192.722656 195.042969 C 192.222656 195.042969 191.816406 194.636719 191.816406 194.136719 L 191.816406 189.945312 C 191.816406 189.089844 192.3125 188.332031 193.082031 188.011719 C 197.246094 186.277344 201.199219 184.0625 204.109375 178.839844 C 212.625 176.511719 215.714844 164.917969 216.804688 158.109375 C 216.992188 156.914062 216.652344 155.703125 215.867188 154.785156 " fill-opacity="1" fill-rule="nonzero"/></g></svg>